<?xml version="1.0" encoding="UTF-8" standalone="no"?>
<!-- Generator: Adobe Illustrator 15.0.0, SVG Export Plug-In . SVG Version: 6.00 Build 0)  -->

<svg xmlns:dc="http://purl.org/dc/elements/1.1/" xmlns:cc="http://creativecommons.org/ns#" xmlns:rdf="http://www.w3.org/1999/02/22-rdf-syntax-ns#" xmlns:svg="http://www.w3.org/2000/svg" xmlns="http://www.w3.org/2000/svg" xmlns:sodipodi="http://sodipodi.sourceforge.net/DTD/sodipodi-0.dtd" xmlns:inkscape="http://www.inkscape.org/namespaces/inkscape" version="1.1" id="Ebene_1" x="0px" y="0px" width="294.76639" height="278.853" viewBox="0 0 294.76639 278.853" enable-background="new 0 0 850 550" xml:space="preserve" inkscape:version="0.91 r13725" sodipodi:docname="logo.svg"><metadata id="metadata53"><rdf:RDF><cc:Work rdf:about=""><dc:format>image/svg+xml</dc:format><dc:type rdf:resource="http://purl.org/dc/dcmitype/StillImage" /><dc:title></dc:title></cc:Work></rdf:RDF></metadata><defs id="defs51" /><sodipodi:namedview pagecolor="#ffffff" bordercolor="#666666" borderopacity="1" objecttolerance="10" gridtolerance="10" guidetolerance="10" inkscape:pageopacity="0" inkscape:pageshadow="2" inkscape:window-width="1600" inkscape:window-height="876" id="namedview49" showgrid="false" fit-margin-top="5" fit-margin-left="-105" fit-margin-right="-105" fit-margin-bottom="-195" showborder="true" inkscape:showpageshadow="false" inkscape:zoom="0.35058824" inkscape:cx="-197.39353" inkscape:cy="-214.47995" inkscape:window-x="0" inkscape:window-y="24" inkscape:window-maximized="1" inkscape:current-layer="Ebene_1" /><g id="g3" transform="translate(-277.46451,-27.987)"><g id="g5"><path d="m 542.718,476.533 c 2.018,-2.49 5.039,-4.239 9.062,-5.236 l 0.276,0 c 0.225,0 0.34,0.072 0.34,0.215 c 0,0.733 -1.555,2.267 -4.658,4.593 c -3.201,1.492 -5.401,2.234 -6.581,2.234 l -0.126,0 c 0.27,0 0.398,0.023 0.398,0.063 c 10e-4,-0.246 0.427,-0.871 1.289,-1.869 m 5.048,-7.595 c -2.101,0.452 -4.904,2.328 -8.414,5.638 c -2.334,3.526 -3.497,6.045 -3.497,7.529 c 0.35,2.677 0.747,4.015 1.199,4.015 c 1.242,2.078 2.978,4.01 5.204,5.789 c 3.715,1.368 6.465,2.052 8.24,2.052 c 1.791,-0.165 2.887,-0.247 3.276,-0.247 c 3.55,0 8.583,-1.455 15.094,-4.381 c 6.392,-4.67 9.875,-8.141 10.448,-10.406 c -0.471,-1.213 -1.145,-1.812 -2.026,-1.812 l -0.125,0 c -0.938,0 -1.913,0.921 -2.937,2.757 c -6.858,6.9 -14.334,10.351 -22.422,10.351 l -1.094,0 c -2.496,0 -4.654,-0.5 -6.498,-1.502 c -1.815,-1.037 -3.155,-2.981 -4.009,-5.815 l 0,-0.126 c 0,-0.104 0.062,-0.191 0.183,-0.276 c 5.329,-1.632 8.494,-2.706 9.496,-3.21 c 4.288,-2.781 6.652,-5.472 7.104,-8.089 c 0,-1.855 -1.5,-2.985 -4.502,-3.402 l -0.553,0 c -1.262,-0.002 -2.656,0.379 -4.167,1.135 m -64.245,9.83 c -3.085,6.167 -5.677,12.327 -7.778,18.471 c 0,1.242 0.638,1.947 1.926,2.108 l 0.185,0 c 0.594,0 1.438,-0.58 2.548,-1.742 c 5.526,-7.985 9.254,-11.974 11.173,-11.974 l 0.12,0 c 0.062,0 0.095,0.076 0.095,0.242 c 0.817,0 1.425,1.604 1.837,4.806 c 0.188,4.229 1.072,6.345 2.663,6.345 l 0.614,-0.126 c 0.595,0 1.582,-1.592 2.973,-4.773 c 1.487,-4.167 3.094,-6.251 4.802,-6.251 l 0.249,0 c 0.613,0 1.92,1.583 3.916,4.747 c 3.818,3.944 7.494,5.91 11.026,5.91 l 1.717,0 c 3.64,0 8.028,-2.448 13.167,-7.353 c 3.394,-3.752 5.556,-6.899 6.496,-9.43 c -0.367,-1.181 -1.002,-1.775 -1.896,-1.775 l -0.124,0 c -1.19,0 -2.478,1.319 -3.864,3.947 c -1.037,1.985 -2.905,4.077 -5.602,6.277 c -3.08,3.064 -6.34,4.598 -9.769,4.598 l -0.368,0 c -1.224,0 -3.155,-0.927 -5.784,-2.786 c -1.125,-0.958 -2.074,-2.143 -2.852,-3.556 c -1.615,-2.88 -3.675,-4.313 -6.188,-4.313 c -1.814,0 -3.684,0.813 -5.602,2.445 c -1.041,1.653 -1.667,2.559 -1.869,2.699 l 0.122,0 c 0.204,0 0.322,0.019 0.339,0.06 c -0.939,-3.553 -2.768,-5.33 -5.481,-5.33 l -1.225,0 c -1.108,0 -2.602,0.623 -4.506,1.869 c -1.719,1.535 -2.406,2.298 -2.079,2.298 l 0,0.398 c 0,-0.325 0.47,-1.653 1.408,-3.983 c 1.591,-3.102 2.387,-4.837 2.387,-5.204 l 0,-0.366 c 0,-0.595 -0.549,-1.016 -1.652,-1.262 c -1.166,0 -2.203,1.002 -3.124,3.004 m -53.596,0 c -3.082,6.167 -5.673,12.327 -7.779,18.471 c 0,1.242 0.646,1.947 1.931,2.108 l 0.184,0 c 0.589,0 1.437,-0.58 2.541,-1.742 c 5.537,-7.985 9.262,-11.974 11.18,-11.974 l 0.125,0 c 0.058,0 0.089,0.076 0.089,0.242 c 0.813,0 1.43,1.604 1.834,4.806 c 0.188,4.229 1.074,6.345 2.663,6.345 l 0.617,-0.126 c 0.591,0 1.579,-1.592 2.971,-4.773 c 1.487,-4.167 3.093,-6.251 4.81,-6.251 l 0.241,0 c 0.612,0 1.923,1.583 3.925,4.747 c 3.81,3.944 7.49,5.91 11.025,5.91 l 1.709,0 c 3.637,0 8.029,-2.448 13.169,-7.353 c 3.388,-3.752 5.554,-6.899 6.493,-9.43 c -0.367,-1.181 -0.998,-1.775 -1.896,-1.775 l -0.12,0 c -1.186,0 -2.472,1.319 -3.858,3.947 c -1.045,1.985 -2.916,4.077 -5.611,6.277 c -3.08,3.064 -6.335,4.598 -9.765,4.598 l -0.371,0 c -1.224,0 -3.155,-0.927 -5.784,-2.786 c -1.122,-0.958 -2.073,-2.143 -2.853,-3.556 c -1.609,-2.88 -3.674,-4.313 -6.18,-4.313 c -1.817,0 -3.688,0.813 -5.611,2.445 c -1.04,1.653 -1.662,2.559 -1.868,2.699 l 0.126,0 c 0.205,0 0.317,0.019 0.336,0.06 c -0.939,-3.553 -2.769,-5.33 -5.481,-5.33 l -1.225,0 c -1.101,0 -2.604,0.623 -4.508,1.869 c -1.707,1.535 -2.404,2.298 -2.074,2.298 l 0,0.398 c 0,-0.325 0.465,-1.653 1.405,-3.983 c 1.59,-3.102 2.387,-4.837 2.387,-5.204 l 0,-0.366 c 0,-0.595 -0.547,-1.016 -1.65,-1.262 c -1.164,0 -2.205,1.002 -3.127,3.004 m -37.671,0.247 c 2.432,-4.35 5.792,-6.482 10.077,-6.402 c 1.268,0.063 1.9,0.053 1.9,-0.03 l 0,0.732 c 0,0.736 -0.431,2.15 -1.285,4.224 c -3.005,6.233 -5.953,9.346 -8.851,9.346 l -0.614,0 c -1.775,-0.528 -2.665,-1.823 -2.665,-3.89 c 0.001,-1.268 0.481,-2.596 1.438,-3.98 m -0.15,-6.158 c -3.389,3.596 -5.146,7.18 -5.269,10.748 c 0,0.697 0.146,1.48 0.429,2.36 c 1.451,3.104 3.561,4.654 6.342,4.654 l 0.123,0 c 3.631,0 6.991,-2.073 10.071,-6.219 c 1.37,-2.473 2.025,-3.702 1.96,-3.702 l 0.248,0.153 c 2.43,4.962 6.382,7.438 11.852,7.438 l 0.49,0 c 0.489,0 1.18,-0.034 2.083,-0.12 c 4.143,-1.058 7.532,-2.744 10.167,-5.051 c 1.981,-1.412 2.969,-2.633 2.969,-3.681 c 0,-0.71 -0.479,-1.29 -1.434,-1.744 c -0.413,0 -1.043,0.104 -1.906,0.31 c -4.465,4.282 -8.55,6.434 -12.245,6.434 c -3.859,0 -6.557,-1.793 -8.086,-5.36 c -0.835,-4.063 -1.376,-6.37 -1.625,-6.925 c -0.961,-2.102 -2.644,-3.161 -5.054,-3.184 l -1.652,-0.063 c -3.595,0.064 -6.749,1.378 -9.463,3.952 m -32.706,3.797 c 1.835,-5.308 3.867,-10.104 6.094,-14.396 c 2.958,-6.017 6.4,-10.981 10.319,-14.885 c 5.063,-5.221 7.975,-7.827 8.731,-7.805 l 0.333,0.029 c -0.183,-0.021 -0.257,0.198 -0.214,0.645 c -0.119,1.404 -2.407,5.777 -6.858,13.109 c -3.717,5.855 -8.963,12.625 -15.739,20.302 c -1.634,2.083 -2.778,3.227 -3.434,3.428 c 0.49,0 0.738,-0.008 0.738,-0.029 l 0.03,-0.398 z m 17.608,-35.588 c -6.085,5.925 -10.251,10.913 -12.494,14.977 c -6.291,11.518 -9.647,19.694 -10.077,24.531 l -0.061,0.582 c -0.188,2.146 -0.105,4.278 0.243,6.401 c 1.9,6.676 5.347,10.243 10.35,10.69 c 2.573,0.224 4.698,-0.379 6.373,-1.807 c 2.856,-3.085 4.438,-6.312 4.744,-9.679 l 0.064,-0.612 c 0.04,-0.531 0.009,-1.583 -0.092,-3.156 l 0.027,-0.216 l 0.064,-0.183 c 0.612,0.062 1.661,0.205 3.154,0.43 c 2.348,0.183 4.583,-0.041 6.706,-0.673 c 3.695,-0.512 5.595,-1.335 5.696,-2.481 c 0.059,-0.775 -0.289,-1.38 -1.04,-1.809 l -1.502,-0.153 c -5.434,1.082 -8.44,1.597 -9.037,1.529 c -1.263,-0.119 -2.478,-0.447 -3.645,-0.978 c -1.753,-0.997 -2.917,-1.53 -3.489,-1.592 l -0.795,-0.059 c -0.596,0.04 -1.102,0.551 -1.534,1.528 c 1.021,3.002 1.441,5.48 1.258,7.445 l -0.123,1.528 c -1.328,5.226 -3.378,7.716 -6.158,7.475 c -1.204,-0.106 -2.317,-0.562 -3.337,-1.376 c -2.897,-3.005 -4.194,-6.231 -3.885,-9.679 c 0.036,-0.613 0.192,-1.104 0.456,-1.473 c 2.433,-2.347 4.831,-4.888 7.198,-7.626 c 5.837,-6.613 10.424,-12.514 13.747,-17.705 c 5.595,-8.816 8.497,-14.4 8.698,-16.747 l 0.034,-0.152 c 0.08,-2.656 -0.755,-4.05 -2.515,-4.197 c -2.304,-0.198 -5.309,1.544 -9.028,5.237 m -54.909,35.467 c 2.018,-2.49 5.041,-4.239 9.064,-5.236 l 0.276,0 c 0.222,0 0.336,0.072 0.336,0.215 c 0,0.733 -1.551,2.267 -4.655,4.593 c -3.203,1.492 -5.401,2.234 -6.583,2.234 l -0.123,0 c 0.265,0 0.397,0.023 0.397,0.063 c 0,-0.246 0.432,-0.871 1.288,-1.869 m 5.054,-7.595 c -2.106,0.452 -4.914,2.328 -8.423,5.638 c -2.327,3.526 -3.494,6.045 -3.494,7.529 c 0.35,2.677 0.747,4.015 1.194,4.015 c 1.245,2.078 2.982,4.01 5.211,5.789 c 3.712,1.368 6.46,2.052 8.235,2.052 c 1.794,-0.165 2.89,-0.247 3.278,-0.247 c 3.552,0 8.584,-1.455 15.098,-4.381 c 6.386,-4.67 9.872,-8.141 10.444,-10.406 c -0.472,-1.213 -1.145,-1.812 -2.026,-1.812 l -0.123,0 c -0.938,0 -1.918,0.921 -2.939,2.757 c -6.858,6.9 -14.33,10.351 -22.414,10.351 l -1.102,0 c -2.49,0 -4.657,-0.5 -6.492,-1.502 c -1.818,-1.037 -3.154,-2.981 -4.017,-5.815 l 0,-0.126 c 0,-0.104 0.064,-0.191 0.183,-0.276 c 5.33,-1.632 8.497,-2.706 9.496,-3.21 c 4.289,-2.781 6.657,-5.472 7.104,-8.089 c 0,-1.855 -1.5,-2.985 -4.5,-3.402 l -0.554,0 c -1.263,-0.002 -2.648,0.379 -4.159,1.135 m -40.888,-5.974 c 2.756,-8.019 4.831,-13.094 6.217,-15.217 c 0.838,-2.514 1.842,-4.53 3.004,-6.068 c 2.142,-4.162 3.805,-6.246 4.989,-6.246 l 0.092,0 c 0.101,0.041 0.184,1.093 0.249,3.157 c 0,2.959 -0.44,5.624 -1.319,7.989 c -1.062,5.78 -5.023,13.336 -11.88,22.666 c -2.106,2.817 -3.329,4.227 -3.675,4.227 c 0.224,0 0.315,-0.286 0.275,-0.859 l 0,-0.276 c 0.406,-2.917 1.091,-6.042 2.048,-9.373 m 10.476,-30.441 c -3.553,4.658 -5.934,8.293 -7.138,10.904 c -1.979,4.693 -3.488,8.046 -4.532,10.045 c -1.287,4.226 -2.265,6.881 -2.938,7.962 c -2.001,7.821 -3,14.987 -3,21.501 c 0,3.674 0.244,7.725 0.733,12.156 c 0,4.492 0.913,6.737 2.726,6.737 l 0.123,0 c 0.796,0 2.224,-5.965 2.35,-6.291 c 0.469,0 0.223,2.83 1.202,-3.107 c 2.49,-7.21 4.534,-10.814 6.125,-10.814 l 0.739,0 c 1.222,0 2.366,1.521 3.428,4.564 c 0.897,5.022 1.511,8.102 1.836,9.247 c 1.062,2.556 3.237,3.825 6.525,3.825 c 2.49,-0.114 3.81,-0.281 3.95,-0.486 c 2.124,0 4.74,-2.458 7.842,-7.383 c 2.528,-5.551 3.827,-9.185 3.887,-10.897 c 0,-0.903 -0.472,-1.646 -1.411,-2.241 l -0.699,0 c -0.512,0 -1.118,0.33 -1.808,0.979 c -0.897,3.701 -1.744,6.21 -2.542,7.538 c -2.495,5.919 -5.493,8.879 -9.004,8.879 l -0.367,0 c -0.595,0 -1.185,-0.16 -1.777,-0.488 c -0.264,0 -0.901,-2.409 -1.897,-7.229 c -1.349,-6.859 -4.084,-10.286 -8.211,-10.286 c -2.981,0 -5.544,1.936 -7.686,5.814 c -0.999,2.411 -1.663,3.613 -1.992,3.613 l 0.432,0 c -0.103,-0.671 -0.157,-1.154 -0.157,-1.436 c 0.083,-2.616 0.123,-4.126 0.123,-4.537 c 0,-1.223 1.982,-3.836 5.945,-7.838 c 7.919,-10.454 12.341,-18.343 13.262,-23.672 c 1.322,-3.453 1.985,-7.443 1.985,-11.979 c 0,-4.426 -1.272,-6.643 -3.827,-6.643 l -0.242,0 c -1.272,0.003 -2.598,0.526 -3.985,1.563" id="path7" inkscape:connector-curvature="0" style="fill:#ffffff" /><path d="m 653.72,353.489 c -0.282,-0.22 -0.582,-0.301 -0.896,-0.234 l -0.188,0 l -0.375,0 c -0.374,0 -0.675,0.121 -0.898,0.377 c -0.215,0.25 -0.322,0.532 -0.322,0.844 c 0.188,4.834 0.314,10.082 0.375,15.762 c 0.06,5.677 0.091,10.567 0.091,14.677 c 0,4.104 -0.014,9.438 -0.045,15.991 c -0.031,6.553 -0.046,11.558 -0.046,15.006 c 0,0.374 0.109,0.673 0.332,0.893 c 0.216,0.219 0.514,0.331 0.889,0.331 c 0.376,0 0.677,-0.112 0.895,-0.331 c 0.221,-0.22 0.327,-0.519 0.327,-0.893 c 0,-3.386 0.02,-8.483 0.048,-15.288 c 0.032,-6.809 0.05,-12.889 0.05,-18.254 c 0,-5.36 -0.032,-10.452 -0.098,-15.284 l 0.285,1.313 c 1.883,7.903 2.914,12.389 3.104,13.457 c 0.312,1.506 1.162,7.215 2.538,17.124 c 1.006,7.148 2.102,12.946 3.295,17.403 c 0.059,0.189 0.188,0.376 0.377,0.564 c 0.25,0.249 0.55,0.39 0.89,0.424 c 0.347,0.026 0.646,-0.08 0.898,-0.331 c 0.245,-0.25 0.374,-0.534 0.374,-0.846 c 0.434,-7.777 0.5,-18.253 0.188,-31.423 c -0.062,-2.445 0.094,-7.494 0.471,-15.148 c 0.313,-6.522 0.313,-11.668 0,-15.429 c 0,-0.312 -0.126,-0.594 -0.377,-0.849 c -0.251,-0.246 -0.55,-0.358 -0.893,-0.326 c -0.347,0.031 -0.644,0.169 -0.896,0.424 c -0.251,0.25 -0.34,0.564 -0.282,0.938 c 0.252,3.263 0.221,8.281 -0.092,15.055 c -0.315,7.397 -0.441,12.508 -0.377,15.335 c 0.188,8.653 0.215,15.836 0.095,21.544 c -0.377,-2.134 -0.752,-4.677 -1.128,-7.623 c -1.257,-8.969 -2.132,-14.767 -2.638,-17.399 c -0.188,-1.069 -1.221,-5.555 -3.104,-13.459 c -1.255,-5.454 -2.068,-9.938 -2.445,-13.452 c 10e-4,-0.374 -0.143,-0.675 -0.422,-0.893 m -26.061,0 c -0.286,-0.22 -0.583,-0.301 -0.896,-0.234 l -0.188,0 l -0.375,0 c -0.377,0 -0.674,0.121 -0.895,0.377 c -0.223,0.25 -0.331,0.532 -0.331,0.844 c 0.187,4.834 0.316,10.082 0.38,15.762 c 0.059,5.677 0.095,10.567 0.095,14.677 c 0,4.104 -0.018,9.438 -0.045,15.991 c -0.037,6.554 -0.05,11.558 -0.05,15.006 c 0,0.374 0.104,0.673 0.325,0.893 c 0.221,0.219 0.521,0.331 0.896,0.331 c 0.374,0 0.676,-0.112 0.895,-0.331 c 0.225,-0.22 0.332,-0.519 0.332,-0.893 c 0,-3.386 0.012,-8.483 0.043,-15.288 c 0.035,-6.809 0.046,-12.889 0.046,-18.254 c 0,-5.36 -0.032,-10.452 -0.089,-15.284 l 0.275,1.313 c 1.887,7.903 2.924,12.389 3.113,13.457 c 0.312,1.506 1.156,7.215 2.533,17.124 c 1.003,7.148 2.103,12.946 3.297,17.403 c 0.062,0.189 0.186,0.376 0.374,0.564 c 0.251,0.249 0.55,0.39 0.896,0.424 c 0.338,0.026 0.644,-0.08 0.893,-0.331 c 0.252,-0.25 0.377,-0.534 0.377,-0.846 c 0.436,-7.777 0.5,-18.253 0.188,-31.423 c -0.063,-2.445 0.093,-7.494 0.469,-15.148 c 0.319,-6.522 0.319,-11.668 0,-15.429 c 0,-0.312 -0.121,-0.594 -0.376,-0.849 c -0.25,-0.246 -0.55,-0.358 -0.889,-0.326 c -0.349,0.031 -0.649,0.169 -0.895,0.424 c -0.251,0.25 -0.349,0.564 -0.288,0.938 c 0.252,3.263 0.225,8.281 -0.087,15.055 c -0.317,7.397 -0.439,12.508 -0.382,15.335 c 0.186,8.653 0.221,15.836 0.095,21.544 c -0.374,-2.134 -0.751,-4.677 -1.126,-7.623 c -1.257,-8.969 -2.137,-14.767 -2.637,-17.399 c -0.189,-1.069 -1.221,-5.555 -3.104,-13.459 c -1.252,-5.454 -2.066,-9.938 -2.451,-13.452 c 10e-4,-0.374 -0.134,-0.675 -0.418,-0.893 m -34.011,-2.683 c -0.692,0.193 -1.006,0.63 -0.938,1.319 c -0.13,0.129 -0.22,0.282 -0.283,0.469 c -4.703,12.107 -8.627,23.32 -11.762,33.64 c -3.134,10.313 -5.455,20.551 -6.961,30.714 c -0.062,0.374 0.019,0.688 0.232,0.942 c 0.224,0.247 0.506,0.407 0.85,0.465 c 0.344,0.062 0.644,-0.013 0.894,-0.232 c 0.25,-0.219 0.407,-0.487 0.469,-0.801 c 2.195,-14.552 6.68,-31.294 13.453,-50.236 c 0.939,-0.064 2.133,-0.095 3.576,-0.095 l 4.518,0.095 l 0.098,0 c 0.562,1.689 1,3.195 1.314,4.516 c 5.203,20.883 9.469,36.312 12.796,46.289 c 0.307,0.81 0.858,1.079 1.645,0.795 c 0.787,-0.28 1.045,-0.795 0.797,-1.55 c -2.76,-8.213 -7.021,-23.584 -12.787,-46.098 c -0.572,-2.195 -1.673,-5.459 -3.301,-9.787 c -1.564,-4.142 -2.601,-7.305 -3.101,-9.5 c -0.188,-0.816 -0.694,-1.133 -1.509,-0.945 m 1.276,13.784 c -0.85,-0.032 -1.399,-0.045 -1.65,-0.045 l -2.731,0 l 3.201,-8.468 c 0.25,0.813 0.975,2.82 2.168,6.018 l 0.935,2.539 c -0.439,0 -1.079,-0.012 -1.923,-0.044 m -40.408,1.648 c 2.316,-2.069 4.986,-4.988 7.995,-8.752 c 0,2.262 -0.158,5.537 -0.47,9.835 c -0.318,4.296 -0.47,6.848 -0.47,7.667 c -0.25,4.643 -0.25,11.479 0,20.508 c 0.251,9.468 0.313,16.277 0.188,20.415 c 0,0.315 0.107,0.595 0.33,0.848 c 0.215,0.25 0.497,0.376 0.845,0.376 c 0.344,0 0.64,-0.112 0.89,-0.331 c 0.254,-0.22 0.376,-0.519 0.376,-0.893 c 0.13,-4.138 0.067,-10.947 -0.188,-20.415 c -0.249,-8.844 -0.249,-15.62 0,-20.319 c 0.066,-1.444 0.224,-3.734 0.475,-6.868 c 0.251,-3.261 0.406,-5.616 0.475,-7.059 c 0.059,-1.445 0.059,-3.792 0,-7.056 c 0.059,-0.249 0.025,-0.501 -0.098,-0.751 l 0,-0.098 c 0,-0.31 -0.126,-0.595 -0.377,-0.847 c -0.251,-0.245 -0.55,-0.355 -0.893,-0.329 c -0.351,0.031 -0.645,0.176 -0.896,0.424 c -0.252,0.255 -0.346,0.563 -0.282,0.94 l 0,0.098 c -3.638,4.64 -6.585,7.997 -8.842,10.067 c -0.819,-0.881 -3.447,-4.39 -7.9,-10.542 c -0.505,-0.684 -1.101,-0.782 -1.789,-0.277 c -0.25,0.189 -0.411,0.438 -0.474,0.752 c -0.251,0.25 -0.35,0.562 -0.282,0.938 c 0.564,7.593 0.818,17.812 0.756,30.675 c -0.062,15.741 0,25.966 0.188,30.667 c 0,0.374 0.127,0.673 0.376,0.893 c 0.251,0.219 0.552,0.331 0.894,0.331 c 0.339,0 0.627,-0.126 0.845,-0.376 c 0.221,-0.253 0.331,-0.532 0.331,-0.848 c -0.067,-2.38 -0.092,-12.609 -0.092,-30.667 c 0,-11.293 -0.189,-20.45 -0.564,-27.477 c 2.633,3.705 4.828,6.559 6.586,8.561 c 0.562,0.631 1.157,0.662 1.783,0.1 c 0.061,-0.064 0.155,-0.131 0.284,-0.19 m -44.407,50.521 c 0.254,0.25 0.549,0.362 0.889,0.326 c 0.35,-0.03 0.647,-0.169 0.903,-0.426 c 0.241,-0.245 0.341,-0.562 0.277,-0.938 c -0.063,-2.628 0.031,-12.727 0.285,-30.294 c 0.121,-7.842 0.121,-14.232 0,-19.188 l 3.384,0.466 c 1.008,1.761 2.131,5.303 3.39,10.636 l 1.498,6.68 c 0.632,3.137 1.073,5.24 1.322,6.299 c 0.503,1.825 1.815,6.059 3.954,12.705 c 1.752,5.455 2.878,9.627 3.385,12.51 c 0.058,0.378 0.236,0.661 0.518,0.85 c 0.282,0.189 0.595,0.245 0.935,0.189 c 0.348,-0.066 0.617,-0.242 0.805,-0.521 c 0.187,-0.282 0.251,-0.58 0.187,-0.893 c -0.562,-3.386 -1.693,-7.682 -3.389,-12.89 c -2.38,-7.273 -3.701,-11.445 -3.95,-12.515 c -0.31,-1.063 -0.778,-3.147 -1.409,-6.254 c -0.631,-3.107 -1.099,-5.349 -1.409,-6.729 c -1.067,-4.449 -2.042,-7.713 -2.916,-9.782 c 2.318,0.125 4.195,-0.031 5.643,-0.473 c 2.128,-0.626 3.479,-1.753 4.042,-3.386 c 0.438,-1.382 0.252,-2.888 -0.562,-4.515 c -0.688,-1.379 -1.691,-2.652 -3.004,-3.81 c -1.324,-1.163 -2.639,-1.928 -3.963,-2.309 c -1.189,-0.312 -2.914,-0.405 -5.167,-0.279 c -0.506,0 -1.288,0.049 -2.355,0.138 c -1.07,0.099 -1.82,0.175 -2.257,0.236 c -0.378,0 -0.673,0.126 -0.896,0.377 c -0.215,0.255 -0.325,0.537 -0.325,0.849 l 0,0.094 c -0.445,0.251 -0.632,0.631 -0.564,1.127 c 0.684,7.466 0.871,17.562 0.564,30.294 c -0.377,15.114 -0.445,25.309 -0.19,30.577 c -0.003,0.317 0.12,0.596 0.375,0.849 m 3.67,-61.862 c 0.938,-0.09 1.659,-0.135 2.162,-0.135 c 1.942,-0.129 3.354,-0.067 4.23,0.188 c 1.007,0.251 2.038,0.846 3.107,1.784 c 1.068,0.942 1.848,1.944 2.355,3.014 c 0.562,1.001 0.716,1.881 0.469,2.632 c -0.316,0.752 -1.13,1.319 -2.448,1.694 c -1.445,0.438 -3.608,0.532 -6.492,0.284 c -0.308,-0.252 -0.657,-0.319 -1.033,-0.189 c -0.499,0 -1.161,-0.062 -1.977,-0.192 c -0.812,-0.126 -1.407,-0.214 -1.788,-0.277 c -0.123,-3.013 -0.312,-5.896 -0.562,-8.659 c 0.377,-10e-4 1.034,-0.046 1.977,-0.144 m -38.95,-2.303 c -0.313,0.255 -0.474,0.563 -0.474,0.94 l 0,62.849 c 0,0.376 0.111,0.672 0.329,0.89 c 0.227,0.224 0.521,0.332 0.896,0.332 c 0.381,0 0.688,-0.13 0.944,-0.376 c 1.001,0 2.57,-0.018 4.698,-0.049 c 2.138,-0.032 3.733,-0.045 4.803,-0.045 c 4.014,0 7.429,0.12 10.255,0.374 c 0.312,0.064 0.607,-0.013 0.895,-0.236 c 0.277,-0.218 0.438,-0.5 0.465,-0.844 c 0.036,-0.345 -0.054,-0.659 -0.277,-0.939 c -0.22,-0.281 -0.518,-0.425 -0.894,-0.425 c -2.826,-0.312 -6.305,-0.473 -10.443,-0.473 c -1.069,0.065 -2.621,0.11 -4.658,0.142 c -2.041,0.031 -3.561,0.045 -4.562,0.045 l 0,-47.977 c 1.064,0.063 3.077,0.09 6.022,0.09 c 0.376,0 0.676,-0.102 0.889,-0.322 c 0.226,-0.222 0.331,-0.518 0.331,-0.898 c 0,-0.376 -0.105,-0.675 -0.331,-0.895 c -0.213,-0.219 -0.513,-0.326 -0.889,-0.326 c -3.014,0 -5.021,-0.035 -6.022,-0.092 l 0,-9.789 c 1.883,-0.062 3.829,-0.062 5.835,0 c 2.006,0.064 4.343,0.162 7.005,0.283 c 2.665,0.13 4.627,0.188 5.885,0.188 c 0.309,0 0.589,-0.106 0.847,-0.33 c 0.251,-0.221 0.374,-0.497 0.374,-0.847 c 0,-0.344 -0.111,-0.638 -0.331,-0.893 c -0.218,-0.251 -0.514,-0.377 -0.89,-0.377 c -1.135,-0.062 -3.327,-0.175 -6.587,-0.325 c -3.262,-0.157 -5.457,-0.238 -6.583,-0.238 c -1.137,0 -3.36,0.036 -6.682,0.095 c -0.375,-10e-4 -0.663,0.155 -0.85,0.468 m -11.476,0.094 c -0.255,-0.245 -0.531,-0.375 -0.844,-0.375 c -0.324,0 -0.601,0.13 -0.851,0.375 c -0.25,0.25 -0.375,0.537 -0.375,0.846 c 0,2.948 0.061,7.184 0.187,12.704 c 0.126,5.518 0.188,9.282 0.188,11.288 c 0,10.159 -0.275,18.125 -0.849,23.894 c -0.376,3.895 -1.002,6.679 -1.879,8.373 c -1.188,2.388 -3.227,3.483 -6.115,3.3 c -2.445,-0.129 -4.364,-1.693 -5.739,-4.708 c -1.005,-2.321 -1.629,-5.172 -1.879,-8.561 c -0.376,-5.647 -0.475,-13.327 -0.286,-23.052 c 0.317,-13.985 0.474,-21.666 0.474,-23.053 c 0,-0.307 -0.129,-0.593 -0.375,-0.84 c -0.251,-0.25 -0.536,-0.381 -0.85,-0.381 c -0.314,0 -0.595,0.131 -0.846,0.381 c -0.254,0.247 -0.374,0.533 -0.374,0.84 c 0,1.32 -0.163,9.004 -0.47,23.053 c -0.189,9.348 -0.099,17.098 0.279,23.239 c 0.247,3.638 0.973,6.772 2.161,9.406 c 1.761,3.894 4.332,5.929 7.717,6.115 c 3.952,0.255 6.772,-1.281 8.468,-4.609 c 1.001,-1.944 1.726,-5.048 2.162,-9.316 c 0.626,-6.456 0.909,-14.486 0.852,-24.081 c -0.063,-2.006 -0.145,-5.771 -0.243,-11.288 c -0.088,-5.521 -0.138,-9.756 -0.138,-12.704 c 10e-4,-0.308 -0.124,-0.596 -0.375,-0.846 m -40.311,14.445 c 0.215,0.282 0.499,0.438 0.843,0.47 c 0.349,0.031 0.66,-0.064 0.943,-0.281 c 0.284,-0.225 0.42,-0.52 0.42,-0.894 c 0.44,-5.017 -0.31,-8.751 -2.256,-11.199 c -1.754,-2.258 -4.075,-3.104 -6.958,-2.54 c -2.573,0.566 -4.694,2.105 -6.355,4.609 c -1.661,2.507 -2.083,5.272 -1.267,8.28 c 0.375,1.313 0.86,2.602 1.459,3.858 c 0.595,1.255 1.393,2.601 2.398,4.046 l 2.258,3.103 c 0.499,0.692 1.506,1.881 3.006,3.576 c 1.507,1.694 2.385,2.696 2.637,3.013 c 2.697,3.193 4.768,6.236 6.208,9.12 c 1.443,2.889 2.17,6.121 2.17,9.693 c 0,0.313 0.009,1.095 0.044,2.353 c 0.032,1.255 0.01,2.181 -0.044,2.775 c -0.068,0.596 -0.225,1.239 -0.475,1.927 c -1.003,3.009 -2.669,4.891 -4.985,5.647 c -2.135,0.693 -4.393,0.344 -6.777,-1.038 c -2.443,-1.377 -4.312,-3.527 -5.598,-6.443 c -1.287,-2.917 -1.488,-6.128 -0.61,-9.643 c 0.188,-0.813 -0.127,-1.319 -0.941,-1.506 c -0.816,-0.188 -1.314,0.128 -1.502,0.938 c -1.008,4.015 -0.756,7.752 0.751,11.199 c 1.504,3.451 3.731,5.987 6.679,7.618 c 3.012,1.693 5.928,2.101 8.747,1.225 c 3.074,-1 5.3,-3.42 6.678,-7.247 c 0.188,-0.562 0.331,-1.233 0.429,-2.021 c 0.088,-0.781 0.143,-1.444 0.143,-1.975 c 0,-0.531 -0.019,-1.221 -0.055,-2.07 c -0.024,-0.844 -0.043,-1.426 -0.043,-1.739 c 0,-4.015 -0.784,-7.574 -2.353,-10.682 c -1.565,-3.101 -3.763,-6.348 -6.583,-9.736 l -2.729,-3.104 c -1.446,-1.693 -2.398,-2.838 -2.871,-3.434 c -0.471,-0.594 -1.176,-1.564 -2.115,-2.915 c -0.943,-1.344 -1.68,-2.589 -2.21,-3.719 c -0.537,-1.127 -0.957,-2.315 -1.274,-3.576 c -0.626,-2.252 -0.312,-4.325 0.944,-6.205 c 1.253,-1.883 2.821,-3.015 4.7,-3.389 c 1.882,-0.435 3.389,0.067 4.521,1.506 c 1.502,1.944 2.102,5.114 1.786,9.504 c -0.065,0.315 0.014,0.612 0.237,0.896 m -78.793,-14.539 c -0.311,0.255 -0.467,0.563 -0.467,0.94 l 0,62.849 c 0,0.376 0.105,0.672 0.323,0.89 c 0.222,0.224 0.52,0.332 0.898,0.332 c 0.376,0 0.687,-0.13 0.939,-0.376 c 1.001,0 2.574,-0.018 4.706,-0.049 c 2.128,-0.032 3.73,-0.045 4.797,-0.045 c 4.009,0 7.429,0.12 10.255,0.374 c 0.311,0.064 0.608,-0.013 0.892,-0.236 c 0.284,-0.218 0.44,-0.5 0.472,-0.844 c 0.026,-0.345 -0.065,-0.659 -0.284,-0.939 c -0.22,-0.281 -0.517,-0.425 -0.892,-0.425 c -2.826,-0.312 -6.304,-0.473 -10.443,-0.473 c -1.067,0.065 -2.619,0.11 -4.662,0.142 c -2.037,0.031 -3.556,0.045 -4.558,0.045 l 0,-47.977 c 1.066,0.063 3.071,0.09 6.021,0.09 c 0.374,0 0.672,-0.102 0.892,-0.322 c 0.219,-0.222 0.331,-0.518 0.331,-0.898 c 0,-0.376 -0.112,-0.675 -0.331,-0.895 c -0.22,-0.219 -0.518,-0.326 -0.892,-0.326 c -3.014,0 -5.019,-0.035 -6.021,-0.092 l 0,-9.789 c 1.88,-0.062 3.823,-0.062 5.832,0 c 2.005,0.064 4.339,0.162 7.008,0.283 c 2.665,0.13 4.625,0.188 5.879,0.188 c 0.315,0 0.595,-0.106 0.848,-0.33 c 0.25,-0.221 0.375,-0.497 0.375,-0.847 c 0,-0.344 -0.11,-0.638 -0.331,-0.893 c -0.219,-0.251 -0.516,-0.377 -0.892,-0.377 c -1.126,-0.062 -3.323,-0.175 -6.583,-0.325 c -3.264,-0.157 -5.456,-0.238 -6.588,-0.238 c -1.126,0 -3.355,0.036 -6.679,0.095 c -0.374,-10e-4 -0.657,0.155 -0.845,0.468 m -11.101,1.507 c -0.252,-0.25 -0.55,-0.394 -0.894,-0.424 c -0.342,-0.032 -0.642,0.079 -0.892,0.331 c -0.252,0.248 -0.375,0.536 -0.375,0.845 c -0.253,6.397 -0.441,16.322 -0.568,29.774 c -0.124,13.457 -0.344,23.632 -0.655,30.532 c -0.064,0.374 0.026,0.692 0.279,0.938 c 0.252,0.256 0.55,0.394 0.893,0.43 c 0.348,0.031 0.646,-0.079 0.898,-0.332 c 0.246,-0.253 0.375,-0.535 0.375,-0.848 c 0.311,-6.962 0.529,-17.174 0.659,-30.622 c 0.123,-13.456 0.312,-23.35 0.561,-29.685 c 0.066,-0.376 -0.031,-0.686 -0.281,-0.939 m -30.294,-2.262 c -0.253,-0.246 -0.55,-0.389 -0.893,-0.42 c -0.344,-0.03 -0.646,0.08 -0.894,0.331 c -0.25,0.249 -0.375,0.531 -0.375,0.844 c -0.438,6.529 -0.567,14.708 -0.38,24.554 c 0.38,14.929 0.568,23.083 0.568,24.46 l 0,7.623 c 0.061,1.881 0.188,3.357 0.375,4.421 c 0.06,0.692 0.188,1.256 0.375,1.695 c 0.252,0.693 0.594,1.159 1.035,1.412 c 0.502,0.25 1.411,0.376 2.729,0.376 c 0.878,0 2.036,-0.031 3.483,-0.095 c 0.376,0 0.782,-0.031 1.223,-0.093 l 1.314,0 c 0.502,-0.067 0.879,-0.095 1.131,-0.095 c 1.19,-0.062 2.005,-0.094 2.443,-0.094 c 0.314,0 0.594,-0.111 0.847,-0.33 c 0.253,-0.22 0.376,-0.502 0.376,-0.846 c 0,-0.345 -0.11,-0.645 -0.325,-0.894 c -0.225,-0.251 -0.523,-0.376 -0.898,-0.376 c -0.438,-0.062 -1.314,-0.031 -2.63,0.089 c -0.254,0 -0.615,0.019 -1.083,0.049 c -0.471,0.037 -0.909,0.049 -1.318,0.049 c -0.407,0 -0.8,0.032 -1.176,0.092 c -1.441,0.065 -2.573,0.098 -3.386,0.098 c -0.628,-0.063 -1.1,-0.098 -1.41,-0.098 l 0,-0.091 c -0.13,-0.248 -0.222,-0.66 -0.285,-1.224 c -0.125,-1.002 -0.221,-2.384 -0.279,-4.14 c -0.065,-0.688 -0.097,-3.197 -0.097,-7.529 c 0,-1.439 -0.156,-9.593 -0.471,-24.46 c -0.188,-9.846 -0.092,-17.969 0.284,-24.366 c 0.059,-0.374 -0.03,-0.687 -0.283,-0.942 m -37.348,0.755 c -0.316,0.255 -0.473,0.563 -0.473,0.94 l 0,62.849 c 0,0.376 0.112,0.672 0.331,0.89 c 0.219,0.224 0.517,0.332 0.897,0.332 c 0.375,0 0.686,-0.13 0.939,-0.376 c 1.004,0 2.572,-0.018 4.701,-0.049 c 2.135,-0.032 3.73,-0.045 4.803,-0.045 c 4.011,0 7.431,0.12 10.25,0.374 c 0.318,0.064 0.615,-0.013 0.898,-0.236 c 0.279,-0.218 0.433,-0.5 0.465,-0.844 c 0.033,-0.345 -0.058,-0.659 -0.277,-0.939 c -0.221,-0.281 -0.519,-0.425 -0.894,-0.425 c -2.824,-0.312 -6.304,-0.473 -10.442,-0.473 c -1.073,0.065 -2.624,0.11 -4.66,0.142 c -2.039,0.031 -3.556,0.045 -4.56,0.045 l 0,-47.977 c 1.062,0.063 3.071,0.09 6.02,0.09 c 0.375,0 0.673,-0.102 0.894,-0.322 c 0.22,-0.222 0.329,-0.518 0.329,-0.898 c 0,-0.376 -0.109,-0.675 -0.329,-0.895 c -0.221,-0.219 -0.519,-0.326 -0.894,-0.326 c -3.012,0 -5.016,-0.035 -6.02,-0.092 l 0,-9.789 c 1.882,-0.062 3.822,-0.062 5.832,0 c 2.005,0.064 4.341,0.162 7.01,0.283 c 2.665,0.13 4.623,0.188 5.876,0.188 c 0.313,0 0.597,-0.106 0.847,-0.33 c 0.253,-0.221 0.375,-0.497 0.375,-0.847 c 0,-0.344 -0.109,-0.638 -0.328,-0.893 c -0.222,-0.251 -0.519,-0.377 -0.895,-0.377 c -1.131,-0.062 -3.324,-0.175 -6.583,-0.325 c -3.264,-0.157 -5.457,-0.238 -6.588,-0.238 c -1.131,0 -3.355,0.036 -6.68,0.095 c -0.373,-10e-4 -0.657,0.155 -0.844,0.468 m -21.261,13.644 c 2.322,-2.069 4.986,-4.988 7.998,-8.752 c 0,2.262 -0.159,5.537 -0.472,9.835 c -0.315,4.296 -0.472,6.848 -0.472,7.667 c -0.25,4.643 -0.25,11.479 0,20.508 c 0.252,9.468 0.317,16.277 0.188,20.415 c 0,0.315 0.109,0.595 0.331,0.848 c 0.218,0.25 0.502,0.376 0.847,0.376 c 0.342,0 0.644,-0.112 0.893,-0.331 c 0.252,-0.22 0.38,-0.519 0.38,-0.893 c 0.123,-4.138 0.06,-10.947 -0.188,-20.415 c -0.252,-8.844 -0.252,-15.62 0,-20.319 c 0.061,-1.444 0.215,-3.734 0.468,-6.868 c 0.253,-3.261 0.406,-5.616 0.472,-7.059 c 0.065,-1.445 0.065,-3.792 0,-7.056 c 0.065,-0.249 0.031,-0.501 -0.096,-0.751 l 0,-0.098 c 0,-0.31 -0.123,-0.595 -0.375,-0.847 c -0.253,-0.245 -0.551,-0.355 -0.893,-0.329 c -0.344,0.031 -0.646,0.176 -0.894,0.424 c -0.25,0.255 -0.347,0.563 -0.284,0.94 l 0,0.098 c -3.635,4.64 -6.583,7.997 -8.84,10.067 c -0.819,-0.881 -3.453,-4.39 -7.905,-10.542 c -0.505,-0.684 -1.1,-0.782 -1.787,-0.277 c -0.252,0.189 -0.407,0.438 -0.471,0.752 c -0.252,0.25 -0.345,0.562 -0.284,0.938 c 0.567,7.593 0.816,17.812 0.755,30.675 c -0.065,15.741 0,25.966 0.188,30.667 c 0,0.374 0.123,0.673 0.375,0.893 c 0.25,0.219 0.55,0.331 0.893,0.331 c 0.348,0 0.627,-0.126 0.847,-0.376 c 0.219,-0.253 0.331,-0.532 0.331,-0.848 c -0.064,-2.38 -0.092,-12.609 -0.092,-30.667 c 0,-11.293 -0.187,-20.45 -0.567,-27.477 c 2.636,3.705 4.829,6.559 6.588,8.561 c 0.563,0.631 1.158,0.662 1.785,0.1 c 0.061,-0.064 0.154,-0.131 0.281,-0.19 m -43.367,-15.432 c -0.693,0.193 -1.008,0.63 -0.943,1.319 c -0.13,0.129 -0.219,0.282 -0.284,0.469 c -4.701,12.107 -8.623,23.32 -11.756,33.64 c -3.141,10.313 -5.458,20.551 -6.963,30.714 c -0.065,0.374 0.018,0.688 0.232,0.942 c 0.224,0.247 0.503,0.407 0.847,0.465 c 0.342,0.062 0.646,-0.013 0.896,-0.232 c 0.249,-0.219 0.405,-0.487 0.467,-0.801 c 2.198,-14.552 6.68,-31.294 13.455,-50.236 c 0.939,-0.064 2.135,-0.095 3.578,-0.095 l 4.512,0.095 l 0.096,0 c 0.563,1.689 1.004,3.195 1.314,4.516 c 5.204,20.883 9.471,36.312 12.795,46.289 c 0.315,0.81 0.861,1.079 1.648,0.795 c 0.785,-0.28 1.048,-0.795 0.803,-1.55 c -2.76,-8.213 -7.029,-23.584 -12.795,-46.098 c -0.568,-2.195 -1.663,-5.459 -3.293,-9.787 c -1.569,-4.142 -2.604,-7.305 -3.11,-9.5 c -0.187,-0.816 -0.689,-1.133 -1.499,-0.945 m 1.267,13.784 c -0.847,-0.032 -1.396,-0.045 -1.647,-0.045 l -2.729,0 l 3.2,-8.468 c 0.25,0.813 0.971,2.82 2.165,6.018 l 0.938,2.539 c -0.438,0 -1.08,-0.012 -1.927,-0.044" id="path9" inkscape:connector-curvature="0" style="fill:#ffffff" /><path d="m 174.847,499.478 c 0,0 25.779,-8.96 50.669,-8.065 c 24.892,0.885 18.67,8.065 55.116,8.065" id="path11" inkscape:connector-curvature="0" style="fill:none;stroke:#ffffff;stroke-width:4.70170021;stroke-linecap:round" /><path d="m 576.178,480.999 c 0,0 8.002,-10.667 9.776,-10.667 c 1.781,0 8,-8.003 43.554,0 c 35.562,7.997 33.783,8.785 45.339,10.667" id="path13" inkscape:connector-curvature="0" style="fill:none;stroke:#ffffff;stroke-width:4.70170021;stroke-linecap:round" /><path d="m 424.848,297.965 c 73.172,0 132.489,-59.317 132.489,-132.486 C 557.337,92.306 498.02,32.987 424.848,32.987 c -73.17,0 -132.488,59.319 -132.488,132.492 c 0,73.168 59.318,132.486 132.488,132.486" id="path15" inkscape:connector-curvature="0" style="fill:#a7b5c0" /><path d="m 424.848,287.106 c 67.063,0 121.627,-54.562 121.627,-121.632 c 0,-67.066 -54.563,-121.628 -121.627,-121.628 c -67.063,0 -121.624,54.562 -121.624,121.628 c 0,67.071 54.561,121.632 121.624,121.632" id="path17" inkscape:connector-curvature="0" style="fill:#a19d94" /><path d="m 424.848,287.106 c 67.063,0 121.627,-54.562 121.627,-121.632 c 0,-67.066 -54.563,-121.628 -121.627,-121.628 c -67.063,0 -121.624,54.562 -121.624,121.628 c 0,67.071 54.561,121.632 121.624,121.632 z" id="path19" inkscape:connector-curvature="0" style="fill:none;stroke:#ffffff;stroke-width:5.66769981" /><path d="m 424.848,285.922 c 33.261,0 60.224,-26.959 60.224,-60.227 c 0,-33.258 -26.963,-60.216 -60.224,-60.216 c -33.26,0 -60.226,26.958 -60.226,60.216 c 0,33.268 26.966,60.227 60.226,60.227" id="path21" inkscape:connector-curvature="0" style="fill:#937c91" /><path d="m 414.411,150.967 c -23.519,-23.516 -61.649,-23.516 -85.17,0 c -23.519,23.521 -23.515,61.647 0.003,85.168 c 23.517,23.517 61.648,23.517 85.167,0 c 23.517,-23.521 23.517,-61.647 0,-85.168" id="path23" inkscape:connector-curvature="0" style="fill:#937c91" /><path d="m 514.779,238.947 c 23.517,-23.516 23.517,-61.647 0,-85.167 c -23.516,-23.517 -61.651,-23.513 -85.167,0.004 c -23.517,23.516 -23.517,61.647 0,85.163 c 23.516,23.52 61.652,23.52 85.167,0" id="path25" inkscape:connector-curvature="0" style="fill:#937c91" /><path d="m 424.848,45.425 c 33.261,0 60.224,26.963 60.224,60.225 c 0,33.263 -26.963,60.222 -60.224,60.222 c -33.26,0 -60.226,-26.959 -60.226,-60.222 c 0,-33.262 26.966,-60.225 60.226,-60.225" id="path27" inkscape:connector-curvature="0" style="fill:#937c91" /><path d="m 428.128,165.255 c -17.624,28.207 -54.776,36.786 -82.98,19.162 c -28.211,-17.628 -36.786,-54.779 -19.16,-82.986 C 343.612,73.224 380.764,64.65 408.969,82.274 c 28.208,17.628 36.782,54.776 19.159,82.981" id="path29" inkscape:connector-curvature="0" style="fill:#937c91" /><path d="m 512.018,90.639 c 26.904,19.545 32.868,57.212 13.322,84.117 c -19.547,26.91 -57.212,32.873 -84.117,13.322 c -26.91,-19.55 -32.876,-57.208 -13.322,-84.117 c 19.55,-26.91 57.206,-32.869 84.117,-13.322" id="path31" inkscape:connector-curvature="0" style="fill:#937c91" /><path d="m 424.848,225.7 c 33.261,0 60.224,-26.963 60.224,-60.225 c 0,-33.254 -26.963,-60.222 -60.224,-60.222 c -33.26,0 -60.226,26.968 -60.226,60.222 c 0,33.262 26.966,60.225 60.226,60.225" id="path33" inkscape:connector-curvature="0" style="fill:#a7b5c0" /><path d="m 424.848,283.092 c 31.642,0 57.391,-25.747 57.391,-57.392 c 0,-31.643 -25.749,-57.391 -57.391,-57.391 c -31.644,0 -57.391,25.748 -57.391,57.391 c 0,31.645 25.747,57.392 57.391,57.392 z" id="path35" inkscape:connector-curvature="0" style="fill:none;stroke:#ffffff;stroke-width:5.66769981" /><path d="m 412.406,152.969 c -22.378,-22.375 -58.785,-22.375 -81.164,0 c -22.375,22.382 -22.375,58.791 0.004,81.163 c 22.375,22.376 58.781,22.376 81.16,0 c 22.379,-22.376 22.379,-58.781 0,-81.163 z" id="path37" inkscape:connector-curvature="0" style="fill:none;stroke:#ffffff;stroke-width:5.66769981" /><path d="m 512.777,236.944 c 22.375,-22.377 22.375,-58.786 0,-81.163 c -22.381,-22.372 -58.79,-22.372 -81.162,0.005 c -22.376,22.372 -22.376,58.781 0,81.158 c 22.381,22.381 58.781,22.381 81.162,0 z" id="path39" inkscape:connector-curvature="0" style="fill:none;stroke:#ffffff;stroke-width:5.66769981" /><path d="m 424.848,222.866 c 31.642,0 57.391,-25.747 57.391,-57.391 c 0,-31.64 -25.749,-57.387 -57.391,-57.387 c -31.644,0 -57.391,25.747 -57.391,57.387 c 0,31.644 25.747,57.391 57.391,57.391 z" id="path41" inkscape:connector-curvature="0" style="fill:none;stroke:#ffffff;stroke-width:5.66769981" /><path d="m 424.848,48.259 c 31.642,0 57.391,25.748 57.391,57.392 c 0,31.645 -25.749,57.392 -57.391,57.392 c -31.644,0 -57.391,-25.747 -57.391,-57.392 c 0,-31.644 25.747,-57.392 57.391,-57.392 z" id="path43" inkscape:connector-curvature="0" style="fill:none;stroke:#ffffff;stroke-width:5.66769981" /><path d="m 425.727,163.758 c -16.77,26.833 -52.246,35.023 -79.081,18.258 C 319.808,165.246 311.62,129.77 328.387,102.932 c 16.771,-26.838 52.246,-35.028 79.084,-18.258 c 26.835,16.77 35.025,52.245 18.256,79.084 z" id="path45" inkscape:connector-curvature="0" style="fill:none;stroke:#ffffff;stroke-width:5.66769981" /><path d="m 510.354,92.931 c 25.599,18.598 31.295,54.562 12.691,80.162 c -18.603,25.599 -54.561,31.294 -80.161,12.691 c -25.602,-18.598 -31.295,-54.561 -12.692,-80.16 c 18.599,-25.6 54.564,-31.296 80.162,-12.693 z" id="path47" inkscape:connector-curvature="0" style="fill:none;stroke:#ffffff;stroke-width:5.66769981" /></g></g></svg>